<?xml version="1.0" encoding="UTF-8" standalone="no"?>
<!DOCTYPE svg PUBLIC "-//W3C//DTD SVG 1.1//EN" "http://www.w3.org/Graphics/SVG/1.1/DTD/svg11.dtd">
<svg width="100%" height="100%" viewBox="0 0 800 800" version="1.1" xmlns="http://www.w3.org/2000/svg" xmlns:xlink="http://www.w3.org/1999/xlink" xml:space="preserve" xmlns:serif="http://www.serif.com/" style="fill-rule:evenodd;clip-rule:evenodd;stroke-linejoin:round;stroke-miterlimit:2;">
    <path d="M438.632,41.485L528.861,224.314C535.136,237.03 547.267,245.841 561.302,247.877L763.071,277.196C798.415,282.336 812.516,325.757 786.95,350.672L640.951,492.983C630.805,502.879 626.166,517.146 628.569,531.114L663.029,732.065C669.07,767.259 632.123,794.093 600.517,777.489L420.058,682.62C407.509,676.028 392.507,676.028 379.958,682.62L199.499,777.489C167.893,794.109 130.947,767.259 136.988,732.065L171.448,531.114C173.851,517.146 169.212,502.879 159.065,492.983L13.066,350.672C-12.499,325.741 1.602,282.32 36.946,277.196L238.715,247.877C252.749,245.841 264.881,237.03 271.156,224.314L361.385,41.485C377.171,9.462 422.829,9.462 438.632,41.485Z" style="fill:rgb(63,63,63);fill-rule:nonzero;"/>
</svg>
