<?xml version="1.0" encoding="UTF-8" standalone="no"?>
<!DOCTYPE svg PUBLIC "-//W3C//DTD SVG 1.1//EN" "http://www.w3.org/Graphics/SVG/1.1/DTD/svg11.dtd">
<svg width="100%" height="100%" viewBox="0 0 3000 1644" version="1.1" xmlns="http://www.w3.org/2000/svg" xmlns:xlink="http://www.w3.org/1999/xlink" xml:space="preserve" xmlns:serif="http://www.serif.com/" style="fill-rule:evenodd;clip-rule:evenodd;stroke-linejoin:round;stroke-miterlimit:2;">
    <style>
        path {
            fill: #111111;
        }
        @media (prefers-color-scheme: dark) {
            path {
                fill: #fdf9f2;
            }
        }
    </style>
    <g transform="matrix(1,0,0,1,-58.6442,-5.96185)">
        <g transform="matrix(1.21166,0,0,1.21166,-88.4465,-996.452)">
            <g transform="matrix(1,0,0,1,-58.633,50.4241)">
                <g transform="matrix(1,0,0,1,-206.068,-108.011)">
                    <g transform="matrix(-0.7071,0.707113,-0.707113,-0.7071,3360.32,2404.66)">
                        <path d="M1985.53,2220.66L692.093,2220.66L1083.67,1829.09L1593.95,1829.09L1985.53,2220.66Z"/>
                    </g>
                    <g transform="matrix(0.707107,-0.707107,0.707107,0.707107,-1346.7,718.63)">
                        <path d="M1985.53,2220.66L692.093,2220.66L1083.67,1829.09L1593.95,1829.09L1985.53,2220.66Z"/>
                    </g>
                </g>
                <g transform="matrix(1,0,0,1,-12.2995,13.7489)">
                    <g transform="matrix(-0.542485,-1.19713,0.81587,-0.369716,1441.36,5019.22)">
                        <path d="M2920.45,2045.96L1790.62,2045.96L1917.42,1644.24L2813.9,1644.24L2920.45,2045.96Z"/>
                    </g>
                    <g transform="matrix(0.392563,-1.19322,0.880541,0.289694,-279.736,3656.36)">
                        <path d="M2920.45,2045.96L1790.62,2045.96L2109.2,1644.24L2822.77,1644.24L2920.45,2045.96Z"/>
                    </g>
                </g>
            </g>
        </g>
    </g>
</svg>
